<?xml version="1.0" encoding="UTF-8"?>
<svg xmlns="http://www.w3.org/2000/svg" width="772" height="120" viewBox="0 0 772 120">
  <title>CENSASIL Logo</title>
  <g fill="#000000">
    <polygon points="20.0,10.0 20.0,10.0 30.0,20.0 30.0,100.0 20.0,110.0 20.0,110.0 10.0,100.0 10.0,20.0"/>
<polygon points="20.0,10.0 80.0,10.0 90.0,20.0 90.0,20.0 80.0,30.0 20.0,30.0 10.0,20.0 10.0,20.0"/>
<polygon points="20.0,90.0 80.0,90.0 90.0,100.0 90.0,100.0 80.0,110.0 20.0,110.0 10.0,100.0 10.0,100.0"/>
<polygon points="114.0,10.0 114.0,10.0 124.0,20.0 124.0,100.0 114.0,110.0 114.0,110.0 104.0,100.0 104.0,20.0"/>
<polygon points="114.0,10.0 174.0,10.0 184.0,20.0 184.0,20.0 174.0,30.0 114.0,30.0 104.0,20.0 104.0,20.0"/>
<polygon points="114.0,50.0 164.0,50.0 174.0,60.0 174.0,60.0 164.0,70.0 114.0,70.0 104.0,60.0 104.0,60.0"/>
<polygon points="114.0,90.0 174.0,90.0 184.0,100.0 184.0,100.0 174.0,110.0 114.0,110.0 104.0,100.0 104.0,100.0"/>
<polygon points="208.0,10.0 208.0,10.0 218.0,20.0 218.0,100.0 208.0,110.0 208.0,110.0 198.0,100.0 198.0,20.0"/>
<polygon points="268.0,10.0 268.0,10.0 278.0,20.0 278.0,100.0 268.0,110.0 268.0,110.0 258.0,100.0 258.0,20.0"/>
<polygon points="218.0,90.0 236.0,90.0 258.0,30.0 240.0,30.0"/>
<polygon points="302.0,10.0 362.0,10.0 372.0,20.0 372.0,20.0 362.0,30.0 302.0,30.0 292.0,20.0 292.0,20.0"/>
<polygon points="302.0,50.0 362.0,50.0 372.0,60.0 372.0,60.0 362.0,70.0 302.0,70.0 292.0,60.0 292.0,60.0"/>
<polygon points="302.0,90.0 362.0,90.0 372.0,100.0 372.0,100.0 362.0,110.0 302.0,110.0 292.0,100.0 292.0,100.0"/>
<polygon points="302.0,30.0 302.0,30.0 312.0,40.0 312.0,50.0 302.0,60.0 302.0,60.0 292.0,50.0 292.0,40.0"/>
<polygon points="362.0,70.0 362.0,70.0 372.0,80.0 372.0,80.0 362.0,90.0 362.0,90.0 352.0,80.0 352.0,80.0"/>
<polygon points="386.0,110.0 404.0,110.0 430.0,10.0 412.0,10.0"/>
<polygon points="448.0,110.0 466.0,110.0 440.0,10.0 422.0,10.0"/>
<polygon points="410.0,62.0 442.0,62.0 452.0,72.0 452.0,72.0 442.0,82.0 410.0,82.0 400.0,72.0 400.0,72.0"/>
<polygon points="490.0,10.0 550.0,10.0 560.0,20.0 560.0,20.0 550.0,30.0 490.0,30.0 480.0,20.0 480.0,20.0"/>
<polygon points="490.0,50.0 550.0,50.0 560.0,60.0 560.0,60.0 550.0,70.0 490.0,70.0 480.0,60.0 480.0,60.0"/>
<polygon points="490.0,90.0 550.0,90.0 560.0,100.0 560.0,100.0 550.0,110.0 490.0,110.0 480.0,100.0 480.0,100.0"/>
<polygon points="490.0,30.0 490.0,30.0 500.0,40.0 500.0,50.0 490.0,60.0 490.0,60.0 480.0,50.0 480.0,40.0"/>
<polygon points="550.0,70.0 550.0,70.0 560.0,80.0 560.0,80.0 550.0,90.0 550.0,90.0 540.0,80.0 540.0,80.0"/>
<polygon points="584.0,10.0 644.0,10.0 654.0,20.0 654.0,20.0 644.0,30.0 584.0,30.0 574.0,20.0 574.0,20.0"/>
<polygon points="614.0,10.0 614.0,10.0 624.0,20.0 624.0,100.0 614.0,110.0 614.0,110.0 604.0,100.0 604.0,20.0"/>
<polygon points="584.0,90.0 644.0,90.0 654.0,100.0 654.0,100.0 644.0,110.0 584.0,110.0 574.0,100.0 574.0,100.0"/>
<polygon points="678.0,10.0 678.0,10.0 688.0,20.0 688.0,100.0 678.0,110.0 678.0,110.0 668.0,100.0 668.0,20.0"/>
<polygon points="678.0,90.0 738.0,90.0 748.0,100.0 748.0,100.0 738.0,110.0 678.0,110.0 668.0,100.0 668.0,100.0"/>
  </g>
</svg>
